<?xml version="1.0" encoding="UTF-8" standalone="no"?>
<svg width="33px" height="33px" viewBox="0 0 33 33" version="1.1" xmlns="http://www.w3.org/2000/svg" xmlns:xlink="http://www.w3.org/1999/xlink">
    <!-- Generator: Sketch 3.6.1 (26313) - http://www.bohemiancoding.com/sketch -->
    <title>Group-4</title>
    <desc>Created with Sketch.</desc>
    <defs></defs>
    <g id="Page-1" stroke="none" stroke-width="1" fill="none" fill-rule="evenodd">
        <g id="Group-4">
            <rect id="Rectangle-1-Copy-3" x="0" y="0" width="33" height="33"></rect>
            <path d="M30.2499999,8.25 L30.2499999,8.25 L30.2499999,30.2499999 C30.2499999,31.768783 29.0187831,33 27.5000001,33 L5.49999994,33 C3.98121686,33 2.75000001,31.768783 2.75000001,30.2499999 L2.75000001,8.25 C1.23121694,8.25 0,7.01878301 0,5.49999994 L0,2.75000001 C0,1.23121694 1.23121694,0 2.75000001,0 L30.2499999,0 C31.768783,0 33,1.23121694 33,2.75000001 L33,5.49999994 C33,7.01878301 31.768783,8.25 30.2499999,8.25 L30.2499999,8.25 L30.2499999,8.25 Z M5.49999994,30.2499999 L27.5000001,30.2499999 L27.5000001,8.25 L5.49999994,8.25 L5.49999994,30.2499999 L5.49999994,30.2499999 L5.49999994,30.2499999 Z M30.2499999,2.75000001 L2.75000001,2.75000001 L2.75000001,5.49999994 L30.2499999,5.49999994 L30.2499999,2.75000001 L30.2499999,2.75000001 L30.2499999,2.75000001 Z M19.2500001,19.2500001 L13.7499999,19.2500001 C11.4718253,19.2500001 9.62499994,17.4031747 9.62499994,15.1250001 C9.62499994,12.8468255 11.4718253,11.0000001 13.7499999,11.0000001 L19.2500001,11.0000001 C21.5281747,11.0000001 23.3750001,12.8468255 23.3750001,15.1250001 C23.3750001,17.4031747 21.5281747,19.2500001 19.2500001,19.2500001 L19.2500001,19.2500001 L19.2500001,19.2500001 Z" id="icon_products" fill="#FFFFFF"></path>
        </g>
    </g>
</svg>