<?xml version="1.0" encoding="UTF-8" standalone="no"?>
<svg width="33px" height="33px" viewBox="0 0 33 33" version="1.1" xmlns="http://www.w3.org/2000/svg" xmlns:xlink="http://www.w3.org/1999/xlink">
    <!-- Generator: Sketch 3.6.1 (26313) - http://www.bohemiancoding.com/sketch -->
    <title>icon_n9</title>
    <desc>Created with Sketch.</desc>
    <defs></defs>
    <g id="Page-1" stroke="none" stroke-width="1" fill="none" fill-rule="evenodd">
        <g id="icon_n9">
            <rect id="Rectangle-1-Copy-8" x="0" y="0" width="33" height="33"></rect>
            <path d="M14.8814256,32.9983287 C6.95309034,32.9983287 -3.55271368e-15,25.9156777 -3.55271368e-15,17.841852 C-3.55271368e-15,9.92307436 6.4022803,3.23335337 14.0247677,3.23335337 C14.6612433,3.23335337 15.1426711,3.74947217 15.1426711,4.38665592 L15.1426711,16.6354509 C15.1426711,17.7530003 16.3625238,17.8556577 16.3625238,17.8556577 L28.6120267,17.8556577 C29.2499186,17.8556577 29.7653294,18.3385013 29.7653294,18.974269 C29.7649753,26.5946323 22.9488796,32.9983287 14.8814256,32.9983287 L14.8814256,32.9983287 Z M31.5703292,14.7600068 L18.9420559,14.7600068 C18.3473511,14.7600068 17.8850389,14.2969867 17.8850389,13.7033439 L17.8850389,1.07471653 C17.8850389,0.4814277 18.3565549,0 18.9512598,0 C27.0190675,0 32.6500015,5.62562418 32.6500015,13.693786 C32.6500015,14.2884908 32.1639721,14.7600068 31.5703292,14.7600068 L31.5703292,14.7600068 Z" id="icon_reports" fill="#FFFFFF"></path>
        </g>
    </g>
</svg>