<?xml version="1.0" encoding="UTF-8" standalone="no"?>
<svg width="33px" height="33px" viewBox="0 0 33 33" version="1.1" xmlns="http://www.w3.org/2000/svg" xmlns:xlink="http://www.w3.org/1999/xlink">
    <!-- Generator: Sketch 3.6.1 (26313) - http://www.bohemiancoding.com/sketch -->
    <title>Group</title>
    <desc>Created with Sketch.</desc>
    <defs></defs>
    <g id="Page-1" stroke="none" stroke-width="1" fill="none" fill-rule="evenodd">
        <g id="Group">
            <rect id="Rectangle-1" x="0" y="0" width="33" height="33"></rect>
            <path d="M16.5,33 C7.38730158,33 0,25.6126984 0,16.5 C0,7.38730158 7.38730158,0 16.5,0 C25.6126984,0 33,7.38730158 33,16.5 C33,25.6126984 25.6126984,33 16.5,33 L16.5,33 L16.5,33 Z M16.5,2.75000001 C8.90608465,2.75000001 2.75000001,8.90608465 2.75000001,16.5 C2.75000001,24.0939154 8.90608465,30.2499999 16.5,30.2499999 C24.0939154,30.2499999 30.2499999,24.0939154 30.2499999,16.5 C30.2499999,12.8532733 28.8013434,9.35590687 26.2227182,6.77728182 C23.6440931,4.19865658 20.1467267,2.75000001 16.5,2.75000001 L16.5,2.75000001 L16.5,2.75000001 Z M27.5000001,16.5096249 L27.5000001,16.5 L24.75,16.5 C24.75,11.9436508 21.0563492,8.25 16.5,8.25 C11.9436508,8.25 8.25,11.9436508 8.25,16.5 L5.49999994,16.5 C5.49999994,10.4248677 10.4248677,5.49999994 16.5,5.49999994 C22.5751323,5.49999994 27.5000001,10.4248677 27.5000001,16.5 L27.5000001,16.5096249 L27.5000001,16.5096249 L27.5000001,16.5096249 Z M15.192375,18.1073751 C15.1688283,18.0283839 15.1527166,17.9473649 15.1442499,17.865375 L15.1442499,12.3860001 C15.1442499,11.63724 15.7512399,11.03025 16.5,11.03025 C17.2487601,11.03025 17.8557501,11.63724 17.8557501,12.3860001 L17.8557501,17.865375 C17.8474174,17.9469343 17.8313023,18.0275096 17.807625,18.1059999 C19.7261472,18.7461223 20.8976017,20.6827935 20.5738712,22.6792108 C20.2501404,24.6756281 18.5267198,26.1428784 16.5042257,26.1439417 C14.4817315,26.1450051 12.7567692,24.6795677 12.4309393,22.6834921 C12.1051095,20.6874162 13.274527,18.7495143 15.192375,18.1073751 L15.192375,18.1073751 L15.192375,18.1073751 Z M16.5,23.3750001 C17.2593915,23.3750001 17.8749999,22.7593915 17.8749999,21.9999999 C17.8749999,21.2406084 17.2593915,20.625 16.5,20.625 C15.7406085,20.625 15.1250001,21.2406084 15.1250001,21.9999999 C15.1250001,22.7593915 15.7406085,23.3750001 16.5,23.3750001 L16.5,23.3750001 L16.5,23.3750001 Z" id="icon_dashboard" fill="#D18EE2"></path>
        </g>
    </g>
</svg>