<?xml version="1.0" encoding="UTF-8" standalone="no"?>
<svg width="33px" height="33px" viewBox="0 0 33 32" version="1.1" xmlns="http://www.w3.org/2000/svg" xmlns:xlink="http://www.w3.org/1999/xlink">
    <!-- Generator: Sketch 3.6.1 (26313) - http://www.bohemiancoding.com/sketch -->
    <title>Group-3</title>
    <desc>Created with Sketch.</desc>
    <defs></defs>
    <g id="Page-1" stroke="none" stroke-width="1" fill="none" fill-rule="evenodd">
        <g id="Group-3" transform="translate(0.000000, -1.000000)">
            <rect id="Rectangle-1-Copy-2" x="0" y="0" width="33" height="33"></rect>
            <g id="icon_companies" transform="translate(0.000000, 1.000000)" fill="#D18EE2">
                <path d="M30.6742839,15.9217203 L29.1256746,0.543129981 C29.1256746,0.543129981 28.5927392,1.77635684e-15 27.5526706,1.77635684e-15 C26.5116636,1.77635684e-15 26.027518,0.543129981 26.027518,0.543129981 L24.479378,15.9217203 L30.6742839,15.9217203 L30.6742839,15.9217203 Z" id="Fill-1"></path>
                <path d="M22.7571896,15.9217203 L21.6739605,5.15647418 C21.6739605,5.15647418 21.3019379,4.77637637 20.5724355,4.77637637 C19.8434024,4.77637637 19.504219,5.15647418 19.504219,5.15647418 L18.4219282,15.9217203 L22.7571896,15.9217203 L22.7571896,15.9217203 Z" id="Fill-3"></path>
                <path d="M28.65185,23.6438549 C28.65185,24.0696017 28.3042223,24.4133667 27.8777799,24.4133667 L23.2319524,24.4133667 C22.8041028,24.4133667 22.4578825,24.0696017 22.4578825,23.6438549 L22.4578825,21.3376486 C22.4578825,20.9119018 22.8041028,20.57 23.2319524,20.57 L27.8777799,20.57 C28.3042223,20.57 28.65185,20.9119018 28.65185,21.3376486 L28.65185,23.6438549 L28.65185,23.6438549 Z M19.3597259,23.6438549 C19.3597259,24.0696017 19.012098,24.4133667 18.5856558,24.4133667 L13.9393591,24.4133667 C13.5115095,24.4133667 13.16482,24.0696017 13.16482,23.6438549 L13.16482,21.3376486 C13.16482,20.9119018 13.5115095,20.57 13.9393591,20.57 L18.5856558,20.57 C19.012098,20.57 19.3597259,20.9119018 19.3597259,21.3376486 L19.3597259,23.6438549 L19.3597259,23.6438549 Z M10.0666633,23.6438549 C10.0666633,24.0696017 9.71903553,24.4133667 9.29259332,24.4133667 L4.64629666,24.4133667 C4.21891619,24.4133667 3.87222665,24.0696017 3.87222665,23.6438549 L3.87222665,21.3376486 C3.87222665,20.9119018 4.21891619,20.57 4.64629666,20.57 L9.29259332,20.57 C9.71903553,20.57 10.0666633,20.9119018 10.0666633,21.3376486 L10.0666633,23.6438549 L10.0666633,23.6438549 L10.0666633,23.6438549 Z M31.7495375,16.8365636 L17.0361083,16.8267817 L17.0361083,14.5196438 C17.0361083,14.2639162 16.9089732,14.0258893 16.6955175,13.8828868 C16.482531,13.7389527 16.211841,13.7096069 15.9744596,13.8064946 L9.2921242,16.4601923 L9.2921242,14.5196438 C9.2921242,14.2639162 9.16498906,14.0258893 8.95200252,13.8828868 C8.73854683,13.7389527 8.4678569,13.7096069 8.23047543,13.8064946 L0.486960414,16.881281 C0.192344672,16.9986642 0,17.2804769 0,17.5953619 L0,31.0026605 C0,31.4274758 0.346689542,31.7712407 0.774070022,31.7712407 L31.7490684,31.7712407 C32.1773871,31.7712407 32.5236076,31.4274758 32.5236076,31.0026605 L32.5236076,17.6056096 C32.5240766,17.1807944 32.1778561,16.8365636 31.7495375,16.8365636 L31.7495375,16.8365636 L31.7495375,16.8365636 Z" id="Fill-5"></path>
            </g>
        </g>
    </g>
</svg>