<?xml version="1.0" encoding="UTF-8" standalone="no"?>
<svg width="33px" height="33px" viewBox="0 0 33 33" version="1.1" xmlns="http://www.w3.org/2000/svg" xmlns:xlink="http://www.w3.org/1999/xlink">
    <!-- Generator: Sketch 3.6.1 (26313) - http://www.bohemiancoding.com/sketch -->
    <title>Group-8</title>
    <desc>Created with Sketch.</desc>
    <defs></defs>
    <g id="Page-1" stroke="none" stroke-width="1" fill="none" fill-rule="evenodd">
        <g id="Group-8">
            <rect id="Rectangle-1-Copy-7" x="0" y="0" width="33" height="33"></rect>
            <path d="M32.8923547,18.4110395 C32.7761118,19.4256933 31.9199004,20.1933676 30.8986705,20.1985649 L30.7749246,20.1985649 L30.6236796,20.1985649 C29.7069654,20.2030168 28.8874631,20.7710505 28.5615438,21.6279231 C28.2356248,22.4847957 28.4704648,23.4538957 29.1524781,24.0664951 C29.9366732,24.7893123 30.0325109,25.99393 29.3724708,26.8316595 C28.5837,27.8118588 27.6839756,28.6973218 26.6913093,29.4703221 C26.3379977,29.7471145 25.9026608,29.8985222 25.4538501,29.9007032 C24.8849892,29.8991846 24.342264,29.661669 23.9551496,29.2448189 C23.5044053,28.780901 22.8832394,28.5219868 22.2364563,28.5284336 C21.9729562,28.5271935 21.7116345,28.5761937 21.4664817,28.6728107 C20.6078782,29.0336971 20.0609521,29.8869419 20.0915271,30.8178413 C20.1254108,31.8751648 19.3415029,32.7811897 18.2903365,32.8996209 C17.0564836,33.0366046 15.8110851,33.0333758 14.577959,32.8899958 C13.5150558,32.7656514 12.7355756,31.8308352 12.8042675,30.7628405 C12.8508921,29.8231899 12.3078733,28.9537705 11.4430625,28.5834344 C11.1940677,28.4829322 10.9278449,28.4320205 10.6593383,28.4335573 C10.0129778,28.4278752 9.39226607,28.6861035 8.94064504,29.1485675 C8.21837692,29.9442345 7.00175297,30.0406054 6.16323668,29.3685706 C5.19926529,28.5889009 4.32740434,27.7017751 3.56457243,26.7244079 C2.90474913,25.8970508 3.00103632,24.6994222 3.78456517,23.9881189 C4.4686787,23.3552997 4.69273908,22.3666554 4.34829657,21.5007085 C4.01851613,20.68488 3.23434608,20.1440476 2.35461234,20.1256889 L2.27211506,20.1256889 C1.20923311,20.1397659 0.293886589,19.3788844 0.11343629,18.3312883 C-0.0378120965,17.0850516 -0.0378120965,15.8250967 0.11343629,14.5788598 C0.222759074,13.5327484 1.12488773,12.7508665 2.17586824,12.7913344 C3.12677519,12.828118 4.00819123,12.2949171 4.4170443,11.435565 C4.77674598,10.56475 4.55120085,9.56185192 3.8533129,8.92890432 C3.06930603,8.2065584 2.97345726,7.00240137 3.63332016,6.16511493 C4.41940073,5.18672924 5.31429946,4.30101441 6.30073215,3.52507731 C6.65951119,3.24863277 7.09902878,3.0974509 7.55194086,3.09469623 C8.12160337,3.09644774 8.66474179,3.33563926 9.05064141,3.75470558 C9.50313918,4.21538486 10.1236429,4.47203733 10.7693347,4.46559071 C11.0323368,4.46835996 11.2935204,4.42171768 11.5393093,4.32808875 C12.3988282,3.96603194 12.9457841,3.11109951 12.9142639,2.17893318 C12.8811736,1.1224135 13.6650425,0.217630322 14.7154545,0.0999035509 C15.9493416,-0.0364457581 17.1946683,-0.0332169897 18.427832,0.109528688 C19.4898164,0.234510023 20.268745,1.16806083 20.2015235,2.23530898 C20.148784,3.1772147 20.6936236,4.05065003 21.5627285,4.41746502 C21.8120327,4.51675964 22.0781066,4.56717594 22.3464527,4.56596714 C22.9925176,4.57153152 23.6130198,4.31388682 24.065146,3.85233197 C24.7828759,3.0596303 25.993391,2.9620618 26.8288048,3.62957879 C27.7983005,4.40663533 28.674902,5.2929675 29.4412186,6.27099144 C30.1055686,7.10193904 30.0092261,8.30627664 29.2212258,9.02103063 C28.5362966,9.64087996 28.3076008,10.6205521 28.6472915,11.4796124 C28.9869823,12.3386727 29.8238236,12.896969 30.7474255,12.8807106 C31.803348,12.8717105 32.7107948,13.6279519 32.8923547,14.6682361 C33.0358818,15.911709 33.0358818,17.1675668 32.8923547,18.4110395 L32.8923547,18.4110395 L32.8923547,18.4110395 Z M30.1699445,15.2168689 C28.4155752,15.1756926 26.8515674,14.1009249 26.1841421,12.4778724 C25.5167169,10.8548201 25.8721888,8.99065665 27.0900462,7.72713719 C26.5536786,7.06841505 25.9550998,6.4629009 25.3026051,5.91898642 C24.4478678,6.71573041 23.3224258,7.15806491 22.153959,7.15650406 C21.5926538,7.15989348 21.0363413,7.05096342 20.517763,6.83612449 C18.887451,6.14664619 17.8229025,4.5540714 17.8091024,2.7839418 C16.9630243,2.705576 16.1115145,2.705576 15.2654363,2.7839418 C15.1699304,4.48884997 14.0408544,5.9616274 12.4192803,6.49649465 C11.9593169,6.7883919 11.4446962,6.98348919 10.9068302,7.06987782 C9.74478928,7.07132402 8.62509052,6.63373698 7.7719336,5.84473536 C7.10063829,6.38732497 6.48359808,6.99380284 5.9294944,7.65563617 C7.16112396,8.92815675 7.51785695,10.8113636 6.83696445,12.4462044 C6.12688187,14.0542905 4.55191199,15.1075345 2.79459782,15.149493 C2.71437211,16.0091089 2.70977125,16.8741091 2.78084827,17.7345298 C4.53951151,17.7684944 6.11022551,18.8432211 6.77901477,20.4701877 C7.44780422,22.0971544 7.08705455,23.9659134 5.86074667,25.2270116 C6.40396475,25.8799726 7.00195112,26.4853474 7.64818768,27.0365374 C8.50543024,26.2437773 9.62924456,25.8020826 10.7968338,25.7990197 C11.3628068,25.7947481 11.9238766,25.9041618 12.4467793,26.1207743 C14.0778605,26.8078223 15.1430692,28.4003035 15.15544,30.170207 C16.0014845,30.2492935 16.8530613,30.2492935 17.699106,30.170207 C17.7537435,28.4228756 18.82311,26.8681905 20.4352657,26.1922754 C20.9465446,25.9865688 21.4928618,25.8819698 22.0439627,25.884271 C23.2107552,25.8806807 24.3356655,26.318876 25.1926088,27.1107884 C25.8594223,26.5631926 26.4760165,25.9571531 27.035048,25.2998876 C25.7970111,24.030696 25.4395045,22.1434058 26.1275779,20.5093194 C26.8216771,18.8863427 28.4050685,17.8231581 30.1699445,17.7950307 C30.2528812,16.935807 30.2528812,16.0705925 30.1699445,15.2113689 L30.1699445,15.2168689 L30.1699445,15.2168689 Z M16.5028955,21.9860904 C14.2731095,21.9949967 12.2579261,20.6585972 11.3984458,18.6009968 C10.5389657,16.5433966 11.004767,14.170567 12.5783182,12.590631 C14.1518693,11.0106953 16.5227037,10.5353798 18.5836299,11.386659 C20.6445561,12.2379385 21.9889467,14.2478528 21.9889645,16.4777619 C21.9935269,19.5132293 19.5382134,21.9785052 16.5028955,21.9860904 L16.5028955,21.9860904 L16.5028955,21.9860904 Z" id="icon_settings" fill="#D18EE2"></path>
        </g>
    </g>
</svg>