<?xml version="1.0" encoding="UTF-8" standalone="no"?>
<svg width="33px" height="33px" viewBox="0 0 33 33" version="1.1" xmlns="http://www.w3.org/2000/svg" xmlns:xlink="http://www.w3.org/1999/xlink">
    <!-- Generator: Sketch 3.6.1 (26313) - http://www.bohemiancoding.com/sketch -->
    <title>Group-11</title>
    <desc>Created with Sketch.</desc>
    <defs></defs>
    <g id="Page-1" stroke="none" stroke-width="1" fill="none" fill-rule="evenodd">
        <g id="Group-11" transform="translate(0.000000, -1.000000)">
            <rect id="Rectangle-1-Copy-10" x="0" y="0" width="33" height="33"></rect>
            <path d="M16.6230625,7.71687502 C18.5725282,7.71687502 20.1712499,6.22419686 20.1712499,4.35843749 C20.1712499,2.49267812 18.5725282,1 16.6230625,1 C14.6735966,1 13.0748749,2.49267812 13.0748749,4.35843749 C13.0748749,6.22419686 14.6735966,7.71687502 16.6230625,7.71687502 L16.6230625,7.71687502 L16.6230625,7.71687502 L16.6230625,7.71687502 Z M17.31125,15.7901875 L27.0393749,15.7901875 L27.7268749,15.7901875 L27.7268749,16.4776875 L27.7268749,18.8282499 L26.351875,18.8282499 L26.351875,16.4776875 L27.0393749,17.1651874 L6.20743746,17.1651874 L6.89493741,16.4776875 L6.89493741,18.8282499 L5.5199375,18.8282499 L5.5199375,16.4776875 L5.5199375,15.7901875 L6.20743746,15.7901875 L15.9362499,15.7901875 L15.9362499,14.1257499 L17.31125,14.1257499 L17.31125,15.7901875 L17.31125,15.7901875 L17.31125,15.7901875 Z M30.0630857,25.6767185 C30.3192562,25.2205256 30.4645,24.7006069 30.4645,24.14675 C30.4645,22.3075704 28.8629136,20.8426249 26.9163124,20.8426249 C24.9697114,20.8426249 23.368125,22.3075704 23.368125,24.14675 C23.368125,24.7007427 23.5134398,25.2207804 23.7697275,25.6770541 C23.3910014,25.9757144 22.9380716,26.4029518 22.4861422,26.9560703 C21.4564959,28.2162591 20.8326249,29.6902775 20.8326249,31.3579375 L20.8326249,32.0454374 L21.5201249,32.0454374 L26.9163124,32.0454374 L26.9163124,30.6704375 L21.5201249,30.6704375 L22.2076249,31.3579375 C22.2076249,30.039441 22.7075587,28.8582485 23.5509202,27.8260546 C23.8503197,27.4596183 24.1718116,27.1393653 24.492205,26.868855 C24.5623524,26.8096292 24.6260249,26.7580026 24.6819992,26.7141191 C25.2937575,27.1756895 26.0726301,27.450875 26.9163124,27.450875 C27.760142,27.450875 28.5391389,27.1755936 29.1509456,26.7138777 C29.2069657,26.7578018 29.2707067,26.8094923 29.3409404,26.8688048 C29.6612562,27.1393116 29.982671,27.4595611 30.2819995,27.8259948 C31.125173,28.8581953 31.6249999,30.0394066 31.6249999,31.3579375 L32.3124999,30.6704375 L26.9163124,30.6704375 L26.9163124,32.0454374 L32.3124999,32.0454374 L33,32.0454374 L33,31.3579375 C33,29.6903121 32.3762801,28.2163123 31.3468753,26.9561301 C30.8948541,26.4027723 30.4418296,25.9754018 30.0630857,25.6767185 L30.0630857,25.6767185 L30.0630857,25.6767185 Z M9.23095981,25.6770541 C9.48724751,25.2207804 9.63256252,24.7007427 9.63256252,24.14675 C9.63256252,22.3075704 8.03097612,20.8426249 6.08437492,20.8426249 C4.13777387,20.8426249 2.53618749,22.3075704 2.53618749,24.14675 C2.53618749,24.7007263 2.68149383,25.2207497 2.93776742,25.6770136 C2.55896264,25.9756687 2.10593712,26.4028991 1.65390991,26.9560104 C0.624021893,28.216206 -3.55271368e-15,29.6902429 -3.55271368e-15,31.3579375 L-3.55271368e-15,32.0454374 L0.687499993,32.0454374 L6.08437492,32.0454374 L6.08437492,30.6704375 L0.687499993,30.6704375 L1.375,31.3579375 C1.375,30.0394756 1.87504059,28.8583018 2.71859007,27.8261145 C3.0180604,27.4596754 3.33962955,27.1394192 3.66010082,26.8689051 C3.73030259,26.8096468 3.79402128,26.7579959 3.85003154,26.7140964 C4.46179446,27.1756804 5.24067868,27.450875 6.08437492,27.450875 C6.92805737,27.450875 7.70692979,27.1756895 8.3186881,26.7141191 C8.37466261,26.7580026 8.43833507,26.8096292 8.50848225,26.868855 C8.82887583,27.1393653 9.15036778,27.4596183 9.44976727,27.8260546 C10.2931286,28.8582485 10.7930624,30.039441 10.7930624,31.3579375 L11.4805624,30.6704375 L6.08437492,30.6704375 L6.08437492,32.0454374 L11.4805624,32.0454374 L12.1680625,32.0454374 L12.1680625,31.3579375 C12.1680625,29.6902775 11.5441916,28.2162591 10.5145452,26.9560703 C10.0626158,26.4029518 9.60968589,25.9757144 9.23095981,25.6770541 L9.23095981,25.6770541 L9.23095981,25.6770541 Z M16.6230625,6.34187492 C15.4127002,6.34187492 14.449875,5.44291417 14.449875,4.35843749 C14.449875,3.27396075 15.4127002,2.375 16.6230625,2.375 C17.8334248,2.375 18.79625,3.27396075 18.79625,4.35843749 C18.79625,5.44291417 17.8334248,6.34187492 16.6230625,6.34187492 L16.6230625,6.34187492 L16.6230625,6.34187492 Z M16.6237499,11.0326874 L11.226875,11.0326874 L11.914375,11.7201875 C11.914375,10.3673555 12.4163805,9.15678512 13.2623185,8.10013887 C13.5621796,7.72558745 13.8840529,7.39836928 14.2047776,7.12202621 C14.3931668,6.95970615 14.5348557,6.85330956 14.6062154,6.80564904 L13.8425345,5.66222587 C13.4137419,5.94861217 12.8002547,6.47720551 12.1889316,7.24079858 C11.161432,8.52423053 10.5393751,10.0243007 10.5393751,11.7201875 L10.5393751,12.4076875 L11.226875,12.4076875 L16.6237499,12.4076875 L16.6237499,11.0326874 L16.6237499,11.0326874 L16.6237499,11.0326874 Z M16.6237499,12.4076875 L22.0199374,12.4076875 L22.7074375,12.4076875 L22.7074375,11.7201875 C22.7074375,10.0243348 22.0855311,8.52428352 21.0582727,7.24085863 C20.4470854,6.47726009 19.8337303,5.94865933 19.405026,5.66226631 L18.641224,6.80560859 C18.7125623,6.85326576 18.8542139,6.95965882 19.0425558,7.12197517 C19.363203,7.39831488 19.6849992,7.72552987 19.9847897,8.10007882 C20.8305391,9.15673213 21.3324374,10.3673214 21.3324374,11.7201875 L22.0199374,11.0326874 L16.6237499,11.0326874 L16.6237499,12.4076875 L16.6237499,12.4076875 L16.6237499,12.4076875 Z" id="Combined-Shape" fill="#D18EE2"></path>
        </g>
    </g>
</svg>