<?xml version="1.0" encoding="UTF-8" standalone="no"?>
<svg width="33px" height="33px" viewBox="0 0 33 33" version="1.1" xmlns="http://www.w3.org/2000/svg" xmlns:xlink="http://www.w3.org/1999/xlink">
    <!-- Generator: Sketch 3.8.1 (29687) - http://www.bohemiancoding.com/sketch -->
    <title>icon_plus</title>
    <desc>Created with Sketch.</desc>
    <defs></defs>
    <g id="Styles" stroke="none" stroke-width="1" fill="none" fill-rule="evenodd">
        <g id="icon_plus" fill="#8899AA">
            <path d="M16.5,1.0658141e-14 C7.425,1.0658141e-14 2.48689958e-14,7.425 2.48689958e-14,16.5 C2.48689958e-14,25.575 7.425,33 16.5,33 C25.575,33 33,25.575 33,16.5 C33,7.425 25.575,1.0658141e-14 16.5,1.0658141e-14 L16.5,1.0658141e-14 Z M24.75,18.15 L18.15,18.15 L18.15,24.75 L14.85,24.75 L14.85,18.15 L8.25,18.15 L8.25,14.85 L14.85,14.85 L14.85,8.25 L18.15,8.25 L18.15,14.85 L24.75,14.85 L24.75,18.15 L24.75,18.15 Z" id="Shape" transform="translate(16.500000, 16.500000) rotate(-1.000000) translate(-16.500000, -16.500000) "></path>
        </g>
    </g>
</svg>