<?xml version="1.0" encoding="UTF-8" standalone="no"?>
<svg width="33px" height="33px" viewBox="0 0 33 33" version="1.1" xmlns="http://www.w3.org/2000/svg" xmlns:xlink="http://www.w3.org/1999/xlink">
    <!-- Generator: Sketch 3.8.3 (29802) - http://www.bohemiancoding.com/sketch -->
    <title>icon_twitter</title>
    <desc>Created with Sketch.</desc>
    <defs></defs>
    <g id="Styles" stroke="none" stroke-width="1" fill="none" fill-rule="evenodd">
        <g id="icon_twitter" fill="#FFFFFF">
            <path d="M0,26.7832031 C3.1797034,28.8027445 6.63865318,29.8125 10.3769531,29.8125 C12.7832152,29.8125 15.039052,29.4311562 17.1445313,28.668457 C19.2500105,27.9057579 21.05468,26.8852603 22.5585938,25.6069336 C24.0625075,24.3286069 25.3569282,22.8569419 26.4418945,21.1918945 C27.5268609,19.5268471 28.3325169,17.7866302 28.8588867,15.9711914 C29.3852565,14.1557526 29.6484375,12.3457121 29.6484375,10.5410156 C29.6484375,10.1542949 29.6376954,9.86425878 29.6162109,9.67089844 C30.9697333,8.70409673 32.0976517,7.53321 33,6.15820313 C31.796869,6.69531519 30.4970773,7.06054591 29.1005859,7.25390625 C30.5615307,6.39452695 31.5605442,5.13770358 32.0976562,3.48339844 C30.7011649,4.29980877 29.2617262,4.84765485 27.7792969,5.12695313 C26.4687434,3.70897729 24.8252052,3 22.8486328,3 C20.9794828,3 19.384284,3.66063792 18.0629883,4.98193359 C16.7416926,6.30322926 16.0810547,7.89842815 16.0810547,9.76757813 C16.0810547,10.3906281 16.1347651,10.906248 16.2421875,11.3144531 C13.4706893,11.1640617 10.8711059,10.4658265 8.44335938,9.21972656 C6.01561286,7.97362658 3.95313349,6.30860417 2.25585938,4.22460938 C1.63280938,5.2988335 1.32128906,6.43749398 1.32128906,7.640625 C1.32128906,10.089856 2.29881835,11.96972 4.25390625,13.2802734 C3.24413558,13.258789 2.16992757,12.9794949 1.03125,12.4423828 L1.03125,12.5068359 C1.03125,14.1181721 1.568354,15.5522398 2.64257813,16.809082 C3.71680225,18.0659243 5.0380781,18.8447251 6.60644531,19.1455078 C5.98339532,19.3173837 5.43554924,19.4033203 4.96289063,19.4033203 C4.68359235,19.4033203 4.26465123,19.360352 3.70605469,19.2744141 C4.15722882,20.6279365 4.95751378,21.7451128 6.10693359,22.6259766 C7.2563534,23.5068403 8.56151613,23.9580077 10.0224609,23.9794922 C7.53026098,25.9130956 4.72657808,26.8798828 1.61132813,26.8798828 C1.05273158,26.8798828 0.515627578,26.8476566 0,26.7832031 L0,26.7832031 Z" id="Path"></path>
        </g>
    </g>
</svg>