<?xml version="1.0" encoding="UTF-8" standalone="no"?>
<svg width="64px" height="33px" viewBox="0 0 64 33" version="1.1" xmlns="http://www.w3.org/2000/svg" xmlns:xlink="http://www.w3.org/1999/xlink">
    <!-- Generator: Sketch 3.7.2 (28276) - http://www.bohemiancoding.com/sketch -->
    <title>icon_toggle_merged</title>
    <desc>Created with Sketch.</desc>
    <defs></defs>
    <g id="Styles" stroke="none" stroke-width="1" fill="none" fill-rule="evenodd">
        <g id="icon_toggle_merged">
            <g id="Group" transform="translate(0.000000, 8.000000)">
                <rect id="Rectangle-464" fill="#65B32E" x="0" y="0" width="31.8299999" height="17" rx="8"></rect>
                <path d="M7.0359383,7.63504 C6.82042702,7.3956788 6.55553171,7.276 6.24124442,7.276 C5.92695714,7.276 5.66206183,7.3956788 5.44655055,7.63504 C5.23103926,7.8744012 5.12328524,8.16362497 5.12328524,8.50272 C5.12328524,8.84181503 5.23103926,9.13013215 5.44655055,9.36768 C5.66206183,9.60522785 5.92695714,9.724 6.24124442,9.724 C6.55553171,9.724 6.82042702,9.60522785 7.0359383,9.36768 C7.25144958,9.13013215 7.35920361,8.84181503 7.35920361,8.50272 C7.35920361,8.16362497 7.25144958,7.8744012 7.0359383,7.63504 L7.0359383,7.63504 Z M6.23855055,10.46384 C5.68181307,10.46384 5.21308306,10.2761619 4.83234646,9.9008 C4.45160987,9.52543812 4.26124442,9.05850946 4.26124442,8.5 C4.26124442,7.94149054 4.45160987,7.47456188 4.83234646,7.0992 C5.21308306,6.72383812 5.68181307,6.53616 6.23855055,6.53616 C6.79528802,6.53616 7.26401803,6.72383812 7.64475463,7.0992 C8.02549122,7.47456188 8.21585667,7.94149054 8.21585667,8.5 C8.21585667,9.05850946 8.02549122,9.52543812 7.64475463,9.9008 C7.26401803,10.2761619 6.79528802,10.46384 6.23855055,10.46384 L6.23855055,10.46384 Z M11.5616526,6.6232 L12.4021424,6.6232 L12.4021424,10.42576 L11.5616526,10.42576 L9.76753014,8.04304 L9.76753014,10.42576 L8.92704034,10.42576 L8.92704034,6.6232 L9.71365259,6.6232 L11.5616526,9.0712 L11.5616526,6.6232 Z" id="ON" fill="#FFFFFF"></path>
                <rect id="Rectangle-464" fill="#8899AA" transform="translate(47.765000, 8.500000) scale(-1, 1) translate(-47.765000, -8.500000) " x="31.8500004" y="0" width="31.8299999" height="17" rx="8"></rect>
                <path d="M52.565283,8.00618868 C52.3660367,7.78701777 52.1211335,7.67743396 51.830566,7.67743396 C51.5399985,7.67743396 51.2950953,7.78701777 51.0958491,8.00618868 C50.8966028,8.22535959 50.7969811,8.49018713 50.7969811,8.80067925 C50.7969811,9.11117136 50.8966028,9.37516872 51.0958491,9.59267925 C51.2950953,9.81018977 51.5399985,9.9189434 51.830566,9.9189434 C52.1211335,9.9189434 52.3660367,9.81018977 52.565283,9.59267925 C52.7645293,9.37516872 52.8641509,9.11117136 52.8641509,8.80067925 C52.8641509,8.49018713 52.7645293,8.22535959 52.565283,8.00618868 L52.565283,8.00618868 Z M51.8280755,10.5963774 C51.3133559,10.5963774 50.8800018,10.42453 50.528,10.0808302 C50.1759982,9.73713036 50,9.30958746 50,8.79818868 C50,8.2867899 50.1759982,7.859247 50.528,7.51554717 C50.8800018,7.17184734 51.3133559,7 51.8280755,7 C52.342795,7 52.7761492,7.17184734 53.1281509,7.51554717 C53.4801527,7.859247 53.6561509,8.2867899 53.6561509,8.79818868 C53.6561509,9.30958746 53.4801527,9.73713036 53.1281509,10.0808302 C52.7761492,10.42453 52.342795,10.5963774 51.8280755,10.5963774 L51.8280755,10.5963774 Z M56.7046038,7.07969811 L56.7046038,7.76211321 L55.090717,7.76211321 L55.090717,8.51426415 L56.6249057,8.51426415 L56.6249057,9.19667925 L55.090717,9.19667925 L55.090717,10.5615094 L54.3136604,10.5615094 L54.3136604,7.07969811 L56.7046038,7.07969811 Z M59.7530566,7.07969811 L59.7530566,7.76211321 L58.1391698,7.76211321 L58.1391698,8.51426415 L59.6733585,8.51426415 L59.6733585,9.19667925 L58.1391698,9.19667925 L58.1391698,10.5615094 L57.3621132,10.5615094 L57.3621132,7.07969811 L59.7530566,7.07969811 Z" id="OFF" fill="#FFFFFF"></path>
            </g>
        </g>
    </g>
</svg>