<?xml version="1.0" encoding="UTF-8" standalone="no"?>
<svg width="33px" height="33px" viewBox="0 0 33 33" version="1.1" xmlns="http://www.w3.org/2000/svg" xmlns:xlink="http://www.w3.org/1999/xlink">
    <!-- Generator: Sketch 3.8.1 (29687) - http://www.bohemiancoding.com/sketch -->
    <title>icon_edit</title>
    <desc>Created with Sketch.</desc>
    <defs></defs>
    <g id="Styles" stroke="none" stroke-width="1" fill="none" fill-rule="evenodd">
        <g id="icon_edit" fill="#8899AA">
            <g id="Group-24">
                <path d="M0,3.99700023 C0,1.78951796 1.79765853,0 3.99700023,0 L29.0029998,0 C31.210482,0 33,1.79765853 33,3.99700023 L33,29.0029998 C33,31.210482 31.2023415,33 29.0029998,33 L3.99700023,33 C1.78951796,33 0,31.2023415 0,29.0029998 L0,3.99700023 Z M18.9872667,11.3684201 L22.3372981,14.169939 L14.0397773,24.0920406 L10.6897459,21.2905217 L18.9872667,11.3684201 Z M9.70588235,26.0175641 L13.5064643,24.8560891 L10.156261,22.0050065 L9.70588235,26.0175641 Z M20.142783,9.87940104 L23.4932511,12.6804832 L22.8946025,13.3965469 L19.5441344,10.5954647 L20.142783,9.87940104 Z M21.8852186,7.76470588 L25.2352941,10.5654598 L24.1291973,11.8884992 L20.7791218,9.08774531 L21.8852186,7.76470588 Z" id="Combined-Shape"></path>
            </g>
        </g>
    </g>
</svg>