<?xml version="1.0" encoding="UTF-8" standalone="no"?>
<svg width="33px" height="33px" viewBox="0 0 33 33" version="1.1" xmlns="http://www.w3.org/2000/svg" xmlns:xlink="http://www.w3.org/1999/xlink">
    <!-- Generator: Sketch 3.8.3 (29802) - http://www.bohemiancoding.com/sketch -->
    <title>icon_linkedin</title>
    <desc>Created with Sketch.</desc>
    <defs></defs>
    <g id="Styles" stroke="none" stroke-width="1" fill="none" fill-rule="evenodd">
        <g id="icon_linkedin" fill="#FFFFFF">
            <path d="M0,3.77808292 C0,2.68810423 0.379277436,1.78593946 1.13784369,1.07156153 C1.89640994,0.357183605 2.88695004,0 4.1094937,0 C5.33203737,0 6.31153055,0.357183605 7.04800264,1.07156153 C7.78447473,1.78593946 8.16006986,2.68810423 8.1747993,3.77808292 C8.18952875,4.85333217 7.81761592,5.75181464 7.05904967,6.47355729 C6.30048342,7.19529993 5.30257871,7.55616584 4.0653056,7.55616584 L4.0211175,7.55616584 C2.81330327,7.55616584 1.8411747,7.19529993 1.10470261,6.47355729 C0.368230521,5.75181464 0,4.85333217 0,3.77808292 Z M0.419786991,32.4340686 L0.419786991,10.5388629 L7.71082421,10.5388629 L7.71082421,32.4340686 L0.419786991,32.4340686 Z M10.9979282,32.8661307 C11.0273871,26.9890834 10.9979282,21.1219322 10.9979282,17.4690307 L10.9979282,10.8702737 L19.0008849,10.5388629 L19.0008849,13.7204064 C19.2512856,13.2490643 19.5532346,12.8366461 19.8625529,12.4831395 C20.1718712,12.1296329 20.5879717,11.7466731 21.1108668,11.3342488 C21.633762,10.9218244 22.2744831,10.6014638 23.0330494,10.3731575 C23.7916156,10.1448511 24.6348635,10.0306997 25.5628184,10.0306997 C28.0815529,10.0306997 30.1068208,10.866583 31.6386827,12.5383746 C33.1705447,14.2101662 32.9937855,16.442868 32.9937855,19.6686158 L32.9937855,32.8661307 L26.3950275,32.8661307 L26.667521,20.7242209 C26.667521,19.1776296 26.3692542,17.9661511 25.7727119,17.0897494 C25.1761695,16.2133476 24.2445462,15.7751533 22.9778143,15.7751533 C22.0498594,15.7751533 21.272893,16.0292323 20.6468918,16.5373981 C20.0208905,17.0455638 19.0057962,18.9174142 18.6964779,19.6686158 C18.534454,20.110499 18.6964779,32.8661307 18.6964779,32.8661307 L10.9979282,32.8661307 Z" id="icon"></path>
        </g>
    </g>
</svg>