<?xml version="1.0" encoding="UTF-8" standalone="no"?>
<svg width="33px" height="33px" viewBox="0 0 33 33" version="1.1" xmlns="http://www.w3.org/2000/svg" xmlns:xlink="http://www.w3.org/1999/xlink">
    <!-- Generator: Sketch 3.8.3 (29802) - http://www.bohemiancoding.com/sketch -->
    <title>icon_fb</title>
    <desc>Created with Sketch.</desc>
    <defs></defs>
    <g id="Styles" stroke="none" stroke-width="1" fill="none" fill-rule="evenodd">
        <g id="icon_fb" fill="#FFFFFF">
            <path d="M6.6,14.3 C9.16666667,19.4333333 13.5666667,23.65 18.7,26.4 L22.7333333,22.3666667 C23.2833333,21.8166667 24.0166667,21.6333333 24.5666667,22 C26.5833333,22.7333333 28.7833333,23.1 31.1666667,23.1 C32.2666667,23.1 33,23.8333333 33,24.9333333 L33,31.1666667 C33,32.2666667 32.2666667,33 31.1666667,33 C13.9333333,33 0,19.0666667 0,1.83333333 C0,0.733333333 0.733333333,0 1.83333333,0 L8.25,0 C9.35,0 10.0833333,0.733333333 10.0833333,1.83333333 C10.0833333,4.03333333 10.45,6.23333333 11.1833333,8.43333333 C11.3666667,8.98333333 11.1833333,9.71666667 10.8166667,10.2666667 L6.6,14.3 L6.6,14.3 Z" id="Shape"></path>
            <path d="M16.4999999,33 L0,33 L0,0 L33,0 L33,33 L21.9999999,33 L21.9999999,21.9999996 L27.4999999,21.9999996 L27.4999999,16.4999996 L21.9999999,16.4999996 L21.9999999,12.4486607 C21.9999999,9.62500011 27.4999999,11.0000003 27.4999999,11.0000003 L27.4999999,5.50000003 C21.9999999,5.50000003 20.526792,5.61662312 19.2499999,6.87499995 C17.9732079,8.13337678 16.4999999,10.1651672 16.4999999,12.4486607 L16.4999999,16.4999996 L11,16.4999996 L11,21.9999996 L16.4999999,21.9999996 C16.4999999,21.9999996 16.1916729,28.6433784 16.4999999,33 Z" id="icon-12x12"></path>
        </g>
    </g>
</svg>