<?xml version="1.0" encoding="UTF-8" standalone="no"?>
<svg width="33px" height="33px" viewBox="0 0 33 33" version="1.1" xmlns="http://www.w3.org/2000/svg" xmlns:xlink="http://www.w3.org/1999/xlink">
    <!-- Generator: Sketch 3.6.1 (26313) - http://www.bohemiancoding.com/sketch -->
    <title>icon_search</title>
    <desc>Created with Sketch.</desc>
    <defs></defs>
    <g id="Page-1" stroke="none" stroke-width="1" fill="none" fill-rule="evenodd">
        <g id="icon_search">
            <rect id="Rectangle-1-Copy-10" x="0" y="0" width="33" height="33"></rect>
            <path d="M31.4063436,32.9999749 C30.9852729,33.0023455 30.5806924,32.8365731 30.2824941,32.53949 L22.8761402,25.1873221 C17.0001096,29.8251487 8.5231643,29.0739713 3.55552857,23.4752428 C-1.41210719,17.8765141 -1.14346916,9.37659339 4.16780702,4.10226554 C9.47908326,-1.17206225 17.9865691,-1.38721349 23.5580266,3.61189396 C29.1294842,8.6110014 29.8280346,17.0864623 25.1501594,22.9291223 L32.5407215,30.2860245 C32.8376018,30.5844297 33.0029261,30.9889599 32.9999608,31.4097325 C32.9969955,31.8305049 32.8259862,32.2326684 32.5249297,32.5268656 C32.2301001,32.8272873 31.8274143,32.9976045 31.4063436,32.9999749 L31.4063436,32.9999749 Z M14.0327325,3.03929071 C7.92763349,3.03929071 2.97847277,7.98493237 2.97847277,14.0856904 C2.97847277,20.1864485 7.92763349,25.1320901 14.0327325,25.1320901 C20.1378315,25.1320901 25.0869921,20.1864485 25.0869921,14.0856904 C25.0869921,7.98493237 20.1378315,3.03929071 14.0327325,3.03929071 L14.0327325,3.03929071 L14.0327325,3.03929071 Z" id="magnify" fill="#EB8B2D"></path>
        </g>
    </g>
</svg>