<?xml version="1.0" encoding="UTF-8" standalone="no"?>
<svg width="33px" height="33px" viewBox="0 0 33 33" version="1.1" xmlns="http://www.w3.org/2000/svg" xmlns:xlink="http://www.w3.org/1999/xlink">
    <!-- Generator: Sketch 3.7.2 (28276) - http://www.bohemiancoding.com/sketch -->
    <title>icon_mendatory</title>
    <desc>Created with Sketch.</desc>
    <defs></defs>
    <g id="Styles" stroke="none" stroke-width="1" fill="none" fill-rule="evenodd">
        <g id="icon_mendatory" fill="#CD1719">
            <path d="M31.0933333,14.5933333 L22.6966667,13.9333333 L28.16,7.55333333 C28.8933333,6.82 28.8933333,5.57333333 28.16,4.84 C27.4266667,4.10666667 26.18,4.10666667 25.4466667,4.84 L19.0666667,10.3033333 L18.4066667,1.90666667 C18.4066667,0.843333333 17.5633333,0 16.5,0 C15.4366667,0 14.5933333,0.843333333 14.5933333,1.90666667 L13.9333333,10.3033333 L7.55333333,4.84 C6.82,4.10666667 5.57333333,4.10666667 4.84,4.84 C4.10666667,5.57333333 4.10666667,6.82 4.84,7.55333333 L10.3033333,13.9333333 L1.90666667,14.5933333 C0.843333333,14.5933333 0,15.4366667 0,16.5 C0,17.0133333 0.22,17.5266667 0.55,17.8566667 C0.88,18.1866667 1.39333333,18.4066667 1.90666667,18.4066667 L10.3033333,19.0666667 L4.84,25.4466667 C4.10666667,26.18 4.10666667,27.4266667 4.84,28.16 C5.20666667,28.5266667 5.72,28.71 6.19666667,28.71 C6.67333333,28.71 7.18666667,28.5266667 7.55333333,28.16 L13.9333333,22.6966667 L14.5933333,31.0933333 C14.5933333,31.6066667 14.8133333,32.12 15.1433333,32.45 C15.4733333,32.78 15.9866667,33 16.5,33 C17.5633333,33 18.4066667,32.1566667 18.4066667,31.0933333 L19.0666667,22.6966667 L25.4466667,28.16 C25.8133333,28.5266667 26.3266667,28.71 26.8033333,28.71 C27.28,28.71 27.7933333,28.5266667 28.16,28.16 C28.8933333,27.4266667 28.8933333,26.18 28.16,25.4466667 L22.6966667,19.0666667 L31.0933333,18.4066667 C32.1566667,18.4066667 33,17.5633333 33,16.5 C33,15.4366667 32.1566667,14.5933333 31.0933333,14.5933333 L31.0933333,14.5933333 Z" id="Shape"></path>
        </g>
    </g>
</svg>