<?xml version="1.0" encoding="UTF-8" standalone="no"?>
<svg width="33px" height="33px" viewBox="0 0 33 33" version="1.1" xmlns="http://www.w3.org/2000/svg" xmlns:xlink="http://www.w3.org/1999/xlink">
    <!-- Generator: Sketch 3.6.1 (26313) - http://www.bohemiancoding.com/sketch -->
    <title>icon_n10</title>
    <desc>Created with Sketch.</desc>
    <defs></defs>
    <g id="Page-1" stroke="none" stroke-width="1" fill="none" fill-rule="evenodd">
        <g id="icon_n10" transform="translate(0.000000, -2.000000)">
            <rect id="Rectangle-1-Copy-9" x="0" y="0" width="33" height="33"></rect>
            <path d="M25.1995993,15.6583203 C27.3623055,14.0900003 28.8773342,10.7828002 28.8773342,8.24000011 C28.8773342,4.79552008 26.1051101,2 22.689334,2 C19.6757779,2 17.1696378,4.17360006 16.6178744,7.04608007 C17.8307225,8.49168016 18.5640006,10.3605602 18.5640006,12.4000003 C18.5640006,12.8711203 18.5155279,13.3547203 18.4433345,13.8383203 C18.9507505,14.5538403 19.5313912,15.1872003 20.1759745,15.6583203 C19.22096,16.0722404 18.3835172,16.4019204 17.6337378,16.6858404 C17.2913351,17.5022404 16.8684885,18.2905604 16.3806679,19.0092004 C16.5456812,19.0705606 16.7065692,19.1308804 16.8602378,19.1880805 C20.7958059,20.6669605 22.689334,21.6133605 22.689334,26.9600008 L33.0026676,26.9600008 L33.0026676,22.8000005 C33.0026676,17.5552804 31.3587222,18.3394404 25.1995993,15.6583203 M20.6266672,26.9600008 L20.6266672,31.1200008 L-1.77635684e-15,31.1200008 L-1.77635684e-15,26.9600008 C-1.77635684e-15,21.7152805 1.63982005,22.4994407 7.79894283,19.8183206 C5.63623685,18.2500004 4.12533345,14.9428004 4.12533345,12.4000003 C4.12533345,8.95552015 6.89343225,6.16000007 10.3133336,6.16000007 C13.7291097,6.16000007 16.5013338,8.95552015 16.5013338,12.4000003 C16.5013338,14.9428004 14.9863051,18.2500004 12.823599,19.8183206 C18.9827219,22.4994407 20.6266672,21.7152805 20.6266672,26.9600008" id="icon_users" fill="#FFFFFF"></path>
        </g>
    </g>
</svg>