<?xml version="1.0" encoding="UTF-8" standalone="no"?>
<svg width="33px" height="33px" viewBox="0 0 33 33" version="1.1" xmlns="http://www.w3.org/2000/svg" xmlns:xlink="http://www.w3.org/1999/xlink">
    <!-- Generator: Sketch 3.6.1 (26313) - http://www.bohemiancoding.com/sketch -->
    <title>icon_n10</title>
    <desc>Created with Sketch.</desc>
    <defs></defs>
    <g id="Page-1" stroke="none" stroke-width="1" fill="none" fill-rule="evenodd">
        <g id="icon_n10" transform="translate(0.000000, -2.000000)">
            <rect id="Rectangle-1-Copy-9" x="0" y="0" width="33" height="33"></rect>
            <path d="M25.1975625,15.6572163 C27.3600938,14.0890231 28.875,10.7820903 28.875,8.23949574 C28.875,4.79529412 26.103,2 22.6875,2 C19.6741875,2 17.16825,4.17342437 16.6165312,7.04567221 C17.8292812,8.49115545 18.5625001,10.3598844 18.5625001,12.3991597 C18.5625001,12.8702416 18.5140314,13.3538025 18.4418438,13.8373634 C18.9492188,14.5528256 19.5298125,15.1861344 20.1743438,15.6572163 C19.2194064,16.071103 18.3820313,16.4007564 17.6323125,16.6846534 C17.2899375,17.5009874 16.8671251,18.2892437 16.3793439,19.0078256 C16.5443438,19.0691808 16.7052188,19.1294958 16.858875,19.1866912 C20.794125,20.6654516 22.6875,21.6117752 22.6875,26.9579833 L33,26.9579833 L33,22.7983193 C33,17.5540231 31.3561876,18.3381197 25.1975625,15.6572163 M20.625,26.9579833 L20.625,31.1176471 L-1.77635684e-15,31.1176471 L-1.77635684e-15,26.9579833 C-1.77635684e-15,21.7136869 1.6396875,22.4977837 7.79831245,19.8168803 C5.63578128,18.2486869 4.125,14.9417543 4.125,12.3991597 C4.125,8.95495795 6.89287506,6.15966382 10.3125,6.15966382 C13.728,6.15966382 16.5,8.95495795 16.5,12.3991597 C16.5,14.9417543 14.9850938,18.2486869 12.8225625,19.8168803 C18.9811875,22.4977837 20.625,21.7136869 20.625,26.9579833" id="icon_users" fill="#D18EE2"></path>
        </g>
    </g>
</svg>