<?xml version="1.0" encoding="UTF-8" standalone="no"?>
<svg width="33px" height="33px" viewBox="0 0 33 33" version="1.1" xmlns="http://www.w3.org/2000/svg" xmlns:xlink="http://www.w3.org/1999/xlink">
    <!-- Generator: Sketch 3.6.1 (26313) - http://www.bohemiancoding.com/sketch -->
    <title>pricing-label-purple</title>
    <desc>Created with Sketch.</desc>
    <defs></defs>
    <g id="Page-1" stroke="none" stroke-width="1" fill="none" fill-rule="evenodd">
        <g id="pricing-label-purple" transform="translate(-2.000000, 0.000000)">
            <g id="Page-1">
                <g id="Group">
                    <path d="M31.6580088,0.0145202494 C31.3147206,-0.0566894164 30.9975342,0.139994814 30.9179071,0.473450094 C30.0833261,3.81755482 28.8113921,3.93868233 26.6690291,4.15923138 C25.3587849,4.28991069 23.6945473,4.46965019 21.9170641,5.50083033 C20.9563031,6.05397699 20.2592032,7.0117886 19.7046389,8.05166286 L17.7566519,6.93014015 L12.5464683,8.22918482 L2,25.0100064 L14.8757184,32.4229981 L25.4129849,15.6052705 L24.1707551,10.6229589 L20.7499001,8.6534556 C21.217139,7.75295472 21.7886034,6.94406834 22.4995967,6.53159628 C24.027312,5.64109077 25.4524868,5.48175605 26.7244208,5.36062855 C28.9526058,5.15788193 31.0566587,4.94688464 32.1194158,0.722683899 C32.2082445,0.426134616 32.001297,0.0857298901 31.6580088,0.0145202494 L31.6580088,0.0145202494 L31.6580088,0.0145202494 L31.6580088,0.0145202494 L31.6580088,0.0145202494 Z M16.5605097,19.1060489 C16.1712129,18.8503092 15.4876433,18.3935381 14.304538,18.2181164 C13.245565,18.0509452 12.8211463,18.4703667 12.7691243,18.91454 C12.6879938,19.4051712 13.2091211,19.8632434 14.4827401,20.5649011 C16.3080982,21.5209973 16.9197391,22.5053055 16.667146,23.9402929 C16.4053513,25.3383744 15.2010175,26.3834533 13.2609103,26.4359736 L12.9777055,28.0745946 L11.3746917,27.8470667 L11.6471915,26.3287156 C10.5790167,26.1246384 9.57056224,25.6704697 9.01112479,25.2219493 L9.83067209,23.4496031 C10.4376214,23.9254777 11.3694555,24.39875 12.4192269,24.5290151 C13.3540678,24.6879356 14.0543559,24.3957334 14.1845016,23.7752806 C14.2763371,23.1643797 13.8410319,22.7241099 12.6808401,22.1509726 C11.0455295,21.3042932 9.9940733,20.3512428 10.2665731,18.8328916 C10.5283678,17.4348101 11.712795,16.473095 13.4904597,16.421876 L13.7629594,14.9035247 L15.3659733,15.1310525 L15.1424887,16.5195822 C16.2106634,16.7236594 16.9049382,17.0601605 17.4367705,17.3979628 L16.5605097,19.1060489 L16.5605097,19.1060489 L16.5605097,19.1060489 L16.5605097,19.1060489 L16.5605097,19.1060489 Z M20.2704528,9.83140209 C21.4582497,10.5152573 21.8355195,12.0284039 21.098606,13.1529431 C20.7109942,13.7199887 20.1624433,14.1311595 19.5494805,14.2839883 C18.9365178,14.4368171 18.2300346,14.3777617 17.6506904,14.0126051 C16.4628935,13.3287497 16.0948254,11.8525092 16.8225372,10.691064 C17.1718388,10.1335703 17.7586999,9.71284761 18.3716626,9.56001884 C18.6015237,9.50270804 18.8022762,9.49185498 19.0030288,9.48100202 C18.8360764,9.95383071 18.6982323,10.3802017 18.5894968,10.7601147 C18.2830153,10.8365291 18.0424493,11.0141098 17.8677984,11.2928566 C17.6931476,11.5716036 17.6518307,11.8955071 17.734646,12.2276611 C17.8174613,12.5598152 18.0060054,12.8264079 18.2910767,12.9905332 C18.576148,13.1546585 18.9102345,13.1889621 19.255026,13.1029959 C19.5998176,13.0170297 19.8786939,12.8298973 20.0533447,12.5511504 C20.2279955,12.2724036 20.2693125,11.9485001 20.1864971,11.6163459 C20.1312869,11.3949099 19.9994563,11.1925774 19.8385173,11.0367028 C19.9564546,10.6936957 20.0942986,10.2673247 20.2704528,9.83140209 L20.2704528,9.83140209 L20.2704528,9.83140209 L20.2704528,9.83140209 L20.2704528,9.83140209 L20.2704528,9.83140209 Z" id="Shape" fill="#FFFFFF"></path>
                    <rect id="Rectangle-1" x="0" y="0" width="33" height="33"></rect>
                </g>
            </g>
        </g>
    </g>
</svg>