<?xml version="1.0" encoding="UTF-8" standalone="no"?>
<svg width="33px" height="33px" viewBox="0 0 33 33" version="1.1" xmlns="http://www.w3.org/2000/svg" xmlns:xlink="http://www.w3.org/1999/xlink">
    <!-- Generator: Sketch 3.6.1 (26313) - http://www.bohemiancoding.com/sketch -->
    <title>Group-7</title>
    <desc>Created with Sketch.</desc>
    <defs></defs>
    <g id="Page-1" stroke="none" stroke-width="1" fill="none" fill-rule="evenodd">
        <g id="Group-7">
            <rect id="Rectangle-1-Copy-6" x="0" y="0" width="33" height="33"></rect>
            <path d="M30.2499999,33 L21.9999999,33 C20.4812169,33 19.2500001,31.768783 19.2500001,30.2499999 L19.2500001,21.9999999 C19.2500001,20.4812169 20.4812169,19.2500001 21.9999999,19.2500001 L30.2499999,19.2500001 C31.768783,19.2500001 33,20.4812169 33,21.9999999 L33,30.2499999 C33,31.768783 31.768783,33 30.2499999,33 L30.2499999,33 L30.2499999,33 Z M30.2499999,21.9999999 L21.9999999,21.9999999 L21.9999999,30.2499999 L30.2499999,30.2499999 L30.2499999,21.9999999 L30.2499999,21.9999999 L30.2499999,21.9999999 Z M11.0000001,13.7499999 L2.75000001,13.7499999 C1.23121694,13.7499999 0,12.5187831 0,11.0000001 L0,2.75000001 C0,1.23121694 1.23121694,0 2.75000001,0 L11.0000001,0 C12.5187831,0 13.7499999,1.23121694 13.7499999,2.75000001 L13.7499999,11.0000001 C13.7499999,12.5187831 12.5187831,13.7499999 11.0000001,13.7499999 L11.0000001,13.7499999 Z M26.2058824,13.5882353 C29.9581699,13.5882353 33,10.5464052 33,6.79411765 C33,3.04183009 29.9581699,0 26.2058824,0 C22.4535948,0 19.4117647,3.04183009 19.4117647,6.79411765 C19.4117647,10.5464052 22.4535948,13.5882353 26.2058824,13.5882353 L26.2058824,13.5882353 Z M6.79411765,19.4117647 L13.5882353,33 L0,33 L6.79411765,19.4117647 L6.79411765,19.4117647 Z" id="icon_brands" fill="#D18EE2"></path>
        </g>
    </g>
</svg>