<?xml version="1.0" encoding="UTF-8" standalone="no"?>
<svg width="33px" height="33px" viewBox="0 0 33 33" version="1.1" xmlns="http://www.w3.org/2000/svg" xmlns:xlink="http://www.w3.org/1999/xlink">
    <!-- Generator: Sketch 3.6.1 (26313) - http://www.bohemiancoding.com/sketch -->
    <title>Group-2</title>
    <desc>Created with Sketch.</desc>
    <defs></defs>
    <g id="Page-1" stroke="none" stroke-width="1" fill="none" fill-rule="evenodd">
        <g id="Group-2">
            <rect id="Rectangle-1-Copy" x="0" y="0" width="33" height="33"></rect>
            <path d="M9.9,26.4 C8.085,26.4 6.6,27.885 6.6,29.7 C6.6,31.515 8.085,33 9.9,33 C11.715,33 13.2,31.515 13.2,29.7 C13.2,27.885 11.715,26.4 9.9,26.4 L9.9,26.4 L9.9,26.4 Z M0,0 L0,3.3 L3.3,3.3 L9.24,15.84 L6.93,19.8 C6.765,20.295 6.6,20.955 6.6,21.45 C6.6,23.265 8.085,24.75 9.9,24.75 L29.7,24.75 L29.7,21.45 L10.56,21.45 C10.395,21.45 10.23,21.285 10.23,21.12 L10.23,20.955 L11.715,18.15 L23.925,18.15 C25.245,18.15 26.235,17.49 26.73,16.5 L32.67,5.775 C33,5.445 33,5.28 33,4.95 C33,3.96 32.34,3.3 31.35,3.3 L6.93,3.3 L5.445,0 L0,0 L0,0 L0,0 Z M26.4,26.4 C24.585,26.4 23.1,27.885 23.1,29.7 C23.1,31.515 24.585,33 26.4,33 C28.215,33 29.7,31.515 29.7,29.7 C29.7,27.885 28.215,26.4 26.4,26.4 L26.4,26.4 L26.4,26.4 Z" id="icon_orders" fill="#D18EE2"></path>
        </g>
    </g>
</svg>