<?xml version="1.0" encoding="UTF-8" standalone="no"?>
<svg width="33px" height="33px" viewBox="0 0 33 33" version="1.1" xmlns="http://www.w3.org/2000/svg" xmlns:xlink="http://www.w3.org/1999/xlink">
    <!-- Generator: Sketch 3.7.2 (28276) - http://www.bohemiancoding.com/sketch -->
    <title>icon_on</title>
    <desc>Created with Sketch.</desc>
    <defs>
        <rect id="path-1" x="15" y="0.5" width="16.0" height="16" rx="16"></rect>
        <filter x="-50%" y="-50%" width="200%" height="200%" filterUnits="objectBoundingBox" id="filter-2">
            <feOffset dx="0" dy="1" in="SourceAlpha" result="shadowOffsetOuter1"></feOffset>
            <feGaussianBlur stdDeviation="1" in="shadowOffsetOuter1" result="shadowBlurOuter1"></feGaussianBlur>
            <feComposite in="shadowBlurOuter1" in2="SourceAlpha" operator="out" result="shadowBlurOuter1"></feComposite>
            <feColorMatrix values="0 0 0 0 0   0 0 0 0 0   0 0 0 0 0  0 0 0 0.264351223 0" type="matrix" in="shadowBlurOuter1"></feColorMatrix>
        </filter>
        <mask id="mask-3" maskContentUnits="userSpaceOnUse" maskUnits="objectBoundingBox" x="0" y="0" width="16.9027611" height="17" fill="white">
            <use xlink:href="#path-1"></use>
        </mask>
    </defs>
    <g id="Styles" stroke="none" stroke-width="1" fill="none" fill-rule="evenodd">
        <g id="icon_on">
            <g id="Group-3" transform="translate(0.000000, 8.000000)">
                <rect id="Rectangle-464" fill="#65B32E" x="0" y="0" width="31.8299999" height="17" rx="8"></rect>
                <path d="M7.0359383,7.63504 C6.82042702,7.3956788 6.55553171,7.276 6.24124442,7.276 C5.92695714,7.276 5.66206183,7.3956788 5.44655055,7.63504 C5.23103926,7.8744012 5.12328524,8.16362497 5.12328524,8.50272 C5.12328524,8.84181503 5.23103926,9.13013215 5.44655055,9.36768 C5.66206183,9.60522785 5.92695714,9.724 6.24124442,9.724 C6.55553171,9.724 6.82042702,9.60522785 7.0359383,9.36768 C7.25144958,9.13013215 7.35920361,8.84181503 7.35920361,8.50272 C7.35920361,8.16362497 7.25144958,7.8744012 7.0359383,7.63504 L7.0359383,7.63504 Z M6.23855055,10.46384 C5.68181307,10.46384 5.21308306,10.2761619 4.83234646,9.9008 C4.45160987,9.52543812 4.26124442,9.05850946 4.26124442,8.5 C4.26124442,7.94149054 4.45160987,7.47456188 4.83234646,7.0992 C5.21308306,6.72383812 5.68181307,6.53616 6.23855055,6.53616 C6.79528802,6.53616 7.26401803,6.72383812 7.64475463,7.0992 C8.02549122,7.47456188 8.21585667,7.94149054 8.21585667,8.5 C8.21585667,9.05850946 8.02549122,9.52543812 7.64475463,9.9008 C7.26401803,10.2761619 6.79528802,10.46384 6.23855055,10.46384 L6.23855055,10.46384 Z M11.5616526,6.6232 L12.4021424,6.6232 L12.4021424,10.42576 L11.5616526,10.42576 L9.76753014,8.04304 L9.76753014,10.42576 L8.92704034,10.42576 L8.92704034,6.6232 L9.71365259,6.6232 L11.5616526,9.0712 L11.5616526,6.6232 Z" id="ON" fill="#FFFFFF"></path>
                <use id="Rectangle-465" stroke="#EEEEEE" mask="url(#mask-2)" stroke-width="2" fill="#FFFFFF" xlink:href="#path-1" filter="url(#filter-2)"></use>
                <use id="Rectangle-465" stroke="#EEEEEE" mask="url(#mask-2)" stroke-width="2" fill="#FFFFFF" xlink:href="#path-1"></use>
            </g>
        </g>
    </g>
</svg>