<?xml version="1.0" encoding="UTF-8" standalone="no"?>
<svg width="33px" height="33px" viewBox="0 0 33 33" version="1.1" xmlns="http://www.w3.org/2000/svg" xmlns:xlink="http://www.w3.org/1999/xlink">
    <!-- Generator: Sketch 3.7.2 (28276) - http://www.bohemiancoding.com/sketch -->
    <title>icon_off</title>
    <desc>Created with Sketch.</desc>
    <defs>
        <rect id="path-1" x="15" y="0.5" width="16" height="16" rx="16"></rect>
        <filter x="-50%" y="-50%" width="200%" height="200%" filterUnits="objectBoundingBox" id="filter-2">
            <feOffset dx="0" dy="1" in="SourceAlpha" result="shadowOffsetOuter1"></feOffset>
            <feGaussianBlur stdDeviation="1" in="shadowOffsetOuter1" result="shadowBlurOuter1"></feGaussianBlur>
            <feComposite in="shadowBlurOuter1" in2="SourceAlpha" operator="out" result="shadowBlurOuter1"></feComposite>
            <feColorMatrix values="0 0 0 0 0   0 0 0 0 0   0 0 0 0 0  0 0 0 0.264351223 0" type="matrix" in="shadowBlurOuter1"></feColorMatrix>
        </filter>
        <mask id="mask-3" maskContentUnits="userSpaceOnUse" maskUnits="objectBoundingBox" x="0" y="0" width="17" height="17" fill="white">
            <use xlink:href="#path-1"></use>
        </mask>
    </defs>
    <g id="Styles" stroke="none" stroke-width="1" fill="none" fill-rule="evenodd">
        <g id="icon_off">
            <g id="Group-3-Copy" transform="translate(16.500000, 16.500000) scale(-1, 1) translate(-16.500000, -16.500000) translate(0.000000, 8.000000)">
                <rect id="Rectangle-464" fill="#8899AA" x="0" y="0" width="31.8299999" height="17" rx="8"></rect>
                <path d="M5.79441442,7.708 C5.59516814,7.48882909 5.35026493,7.37924528 5.05969744,7.37924528 C4.76912995,7.37924528 4.52422674,7.48882909 4.32498046,7.708 C4.12573418,7.92717091 4.02611253,8.19199845 4.02611253,8.50249057 C4.02611253,8.81298268 4.12573418,9.07698004 4.32498046,9.29449057 C4.52422674,9.51200109 4.76912995,9.62075472 5.05969744,9.62075472 C5.35026493,9.62075472 5.59516814,9.51200109 5.79441442,9.29449057 C5.9936607,9.07698004 6.09328234,8.81298268 6.09328234,8.50249057 C6.09328234,8.19199845 5.9936607,7.92717091 5.79441442,7.708 L5.79441442,7.708 L5.79441442,7.708 Z M5.05720687,10.2981887 C4.54248732,10.2981887 4.10913316,10.1263413 3.7571314,9.78264151 C3.40512964,9.43894168 3.2291314,9.01139878 3.2291314,8.5 C3.2291314,7.98860122 3.40512964,7.56105832 3.7571314,7.21735849 C4.10913316,6.87365866 4.54248732,6.70181132 5.05720687,6.70181132 C5.57192643,6.70181132 6.00528058,6.87365866 6.35728234,7.21735849 C6.7092841,7.56105832 6.88528234,7.98860122 6.88528234,8.5 C6.88528234,9.01139878 6.7092841,9.43894168 6.35728234,9.78264151 C6.00528058,10.1263413 5.57192643,10.2981887 5.05720687,10.2981887 L5.05720687,10.2981887 L5.05720687,10.2981887 Z M9.9337352,6.78150943 L9.9337352,7.46392453 L8.31984838,7.46392453 L8.31984838,8.21607547 L9.8540371,8.21607547 L9.8540371,8.89849057 L8.31984838,8.89849057 L8.31984838,10.2633208 L7.54279178,10.2633208 L7.54279178,6.78150943 L9.9337352,6.78150943 L9.9337352,6.78150943 Z M12.982188,6.78150943 L12.982188,7.46392453 L11.3683012,7.46392453 L11.3683012,8.21607547 L12.9024899,8.21607547 L12.9024899,8.89849057 L11.3683012,8.89849057 L11.3683012,10.2633208 L10.5912446,10.2633208 L10.5912446,6.78150943 L12.982188,6.78150943 L12.982188,6.78150943 Z" id="OFF" fill="#FFFFFF" transform="translate(8.105660, 8.500000) scale(-1, 1) translate(-8.105660, -8.500000) "></path>
                <use id="Rectangle-465" stroke="#EEEEEE" mask="url(#mask-2)" stroke-width="2" xlink:href="#path-1" filter="url(#filter-2)"></use>
                <use id="Rectangle-465" stroke="#EEEEEE" mask="url(#mask-2)" stroke-width="2" fill="#FFFFFF" xlink:href="#path-1"></use>
            </g>
        </g>
    </g>
</svg>